<?xml version="1.0" encoding="UTF-8" standalone="no"?>
<!-- Created with Inkscape (http://www.inkscape.org/) -->

<svg
   xmlns:dc="http://purl.org/dc/elements/1.1/"
   xmlns:cc="http://creativecommons.org/ns#"
   xmlns:rdf="http://www.w3.org/1999/02/22-rdf-syntax-ns#"
   xmlns:svg="http://www.w3.org/2000/svg"
   xmlns="http://www.w3.org/2000/svg"
   xmlns:sodipodi="http://sodipodi.sourceforge.net/DTD/sodipodi-0.dtd"
   xmlns:inkscape="http://www.inkscape.org/namespaces/inkscape"
   width="190.02852mm"
   height="150.54593mm"
   viewBox="0 0 673.3294 533.43045"
   id="svg2"
   version="1.1"
   inkscape:version="0.91 r13725"
   sodipodi:docname="logo.svg">
  <defs
     id="defs4" />
  <sodipodi:namedview
     id="base"
     pagecolor="#ffffff"
     bordercolor="#666666"
     borderopacity="1.0"
     inkscape:pageopacity="0.0"
     inkscape:pageshadow="2"
     inkscape:zoom="0.61580177"
     inkscape:cx="96.311724"
     inkscape:cy="410.11947"
     inkscape:document-units="px"
     inkscape:current-layer="layer1"
     showgrid="false"
     fit-margin-top="0"
     fit-margin-left="0"
     fit-margin-right="0"
     fit-margin-bottom="0"
     inkscape:window-width="1280"
     inkscape:window-height="751"
     inkscape:window-x="0"
     inkscape:window-y="1"
     inkscape:window-maximized="1" />
  <metadata
     id="metadata7">
    <rdf:RDF>
      <cc:Work
         rdf:about="">
        <dc:format>image/svg+xml</dc:format>
        <dc:type
           rdf:resource="http://purl.org/dc/dcmitype/StillImage" />
        <dc:title></dc:title>
      </cc:Work>
    </rdf:RDF>
  </metadata>
  <g
     inkscape:label="Layer 1"
     inkscape:groupmode="layer"
     id="layer1"
     transform="translate(-41.753336,-198.64071)">
    <path
       style="fill:#20948b;fill-opacity:1"
       d="m 286.86939,731.47743 c -18.3771,-1.24937 -49.70821,-7.78849 -65,-13.56618 -1.375,-0.51951 -5.3125,-1.93925 -8.75,-3.15497 -15.82053,-5.59515 -42.73024,-19.88425 -59.10824,-31.38655 -39.19197,-27.5246 -72.031124,-67.93144 -91.134294,-112.13595 -4.06835,-9.41415 -11.1366,-29.53423 -12.30515,-35.02715 -0.27736,-1.30384 -1.04452,-4.11634 -1.70478,-6.25 -1.58817,-5.13216 -4.92184,-22.94613 -6.34014,-33.87939 -0.6243,-4.8125 -0.9346,-21.125 -0.68956,-36.25 0.35042,-21.63069 1.00787,-30.30126 3.08041,-40.625 2.7101,-13.49956 8.12892,-34.94458 9.94947,-39.375 0.56502,-1.375 2.86855,-7.28125 5.11897,-13.125 7.67663,-19.9342 24.20475,-49.36698 35.84123,-63.825 30.406384,-37.77909 64.132154,-64.0146 105.681474,-82.21034 19.45518,-8.52002 39.96058,-14.83358 57.30847,-17.64511 4.42868,-0.71775 9.45839,-1.58922 11.17714,-1.93661 18.42352,-3.7237 61.97226,-3.09355 83.75472,1.21194 44.35723,8.76757 74.14244,21.60673 113.74528,49.03083 6.51027,4.50823 25.92336,21.65506 33.16664,29.29483 18.19015,19.18585 33.9508,41.74557 45.87927,65.67138 7.11586,14.27279 7.48896,15.45257 6.01341,19.01486 -1.03323,2.49444 -3.45227,4.70758 -7.04835,6.44842 -4.68807,2.26946 -6.09588,2.44564 -9.79281,1.22555 -3.86224,-1.27465 -5.04524,-2.90058 -11.2161,-15.41535 -18.64705,-37.81705 -48.18226,-71.06648 -84.49476,-95.1204 -13.11816,-8.68966 -39.77229,-21.90045 -53.1323,-26.33438 -12.19998,-4.04892 -39.1965,-10.92846 -40.79471,-10.39572 -0.63863,0.21287 3.58021,3.12691 9.3752,6.47562 l 10.53633,6.08857 -5.69648,7.33546 c -3.13308,4.0345 -6.34077,7.33545 -7.1282,7.33545 -0.78744,0 -5.01133,-1.20886 -9.38643,-2.68635 l -7.95471,-2.68635 -3.8505,4.82849 c -2.11778,2.65567 -5.05261,6.23794 -6.52186,7.9606 l -2.67137,3.1321 -8.57863,-2.73822 c -17.21625,-5.49523 -57.49084,-17.81027 -58.24598,-17.81027 -0.42686,0 -2.29521,3.23437 -4.15191,7.1875 -1.85669,3.95312 -6.8765,14.5 -11.15515,23.4375 -16.71925,34.92423 -19.83058,42.79165 -18.40996,46.55223 0.71633,1.89627 1.62647,6.17062 2.02251,9.49854 1.87576,15.76207 12.34589,27.03205 25.14621,27.06725 5.84134,0.0161 11.84064,7.65599 11.84064,15.07869 0,4.9344 -5.91681,17.3403 -12.16688,25.51056 -2.61163,3.414 -8.36992,9.12952 -12.79617,12.70114 -7.36445,5.94249 -8.2379,7.16661 -10.28746,14.41771 -1.23185,4.35814 -2.24193,8.95552 -2.24462,10.2164 -0.005,2.61103 -12.11031,15.83248 -14.49525,15.83248 -2.00158,0 -8.93228,-5.80273 -10.5573,-8.83909 -1.03773,-1.93901 0.18954,-3.75885 7.48269,-11.09554 7.89461,-7.94173 8.49848,-8.89681 6.35168,-10.04573 -5.34833,-2.86234 -13.00604,-0.38635 -21.96424,7.10177 -6.46486,5.40396 -13.42934,15.5439 -20.02841,29.1604 -5.90423,12.18276 -7.37572,13.71819 -13.14705,13.71819 -3.60544,0 -5.32543,-0.77535 -7.30627,-3.29358 -1.4249,-1.81146 -2.59072,-4.27402 -2.59072,-5.47233 0,-4.61843 8.4447,-22.09484 16.3005,-33.73409 4.58875,-6.79875 15.86437,-18.30384 20.4375,-20.85341 3.32171,-1.85189 1.72437,-3.60748 -4.77028,-5.24284 -8.26403,-2.08091 -19.19937,-1.63639 -26.96772,1.09625 -3.78125,1.33011 -8.32383,2.43675 -10.09461,2.45919 -7.1225,0.0903 -11.28282,-10.2525 -6.46789,-16.07956 5.39725,-6.53179 28.98699,-10.63587 44.6875,-7.77459 4.125,0.75174 12.17809,3.66895 17.89574,6.48267 10.65857,5.24523 14.7739,5.63518 13.38801,1.26862 -0.74694,-2.35339 -0.619,-2.35093 5.85131,0.11262 8.47906,3.22845 22.28896,2.83256 25.67343,-0.73599 2.10637,-2.22092 2.0701,-2.27561 -0.93349,-1.40741 -8.30728,2.40121 -17.1114,2.21323 -23.25924,-0.49666 -7.6871,-3.38835 -15.07616,-8.44555 -16.0508,-10.98542 -1.03204,-2.68942 2.59931,-7.84353 5.52619,-7.84353 1.32469,0 5.04177,1.77716 8.2602,3.94925 7.59569,5.12626 16.05489,6.17193 20.53679,2.53862 3.8024,-3.08247 2.52955,-5.03507 -1.46044,-2.24037 -1.57243,1.10137 -3.89964,2.0025 -5.17156,2.0025 -2.17975,0 -2.16378,-0.18919 0.27813,-3.29358 1.4249,-1.81146 2.59073,-3.73231 2.59073,-4.26853 0,-0.53623 -2.74961,-2.99338 -6.11026,-5.46032 -4.66664,-3.42562 -7.10308,-6.54422 -10.3125,-13.19982 -2.31123,-4.79297 -4.55588,-8.72872 -4.98809,-8.74611 -2.01378,-0.081 -4.19804,8.86227 -4.0374,16.53086 0.0972,4.64062 -0.32468,8.4375 -0.9375,8.4375 -2.24306,0 -1.19429,-17.20439 1.45912,-23.93615 1.41537,-3.59079 2.59445,-9.24925 2.6202,-12.57435 0.0412,-5.32853 0.52969,-6.41393 4.11747,-9.15047 2.66535,-2.03296 5.27762,-6.01489 7.56693,-11.53442 1.92298,-4.63629 5.02225,-11.52336 6.8873,-15.30461 7.43758,-15.07917 22.48473,-47.71898 22.48473,-48.77314 0,-0.95247 -15.31431,-6.2268 -18.07986,-6.2268 -1.23057,0 -5.79549,5.71381 -26.50369,33.174 -7.14451,9.474 -11.80083,14.21741 -19.00243,19.35781 -39.48131,28.1812 -44.27896,32.18171 -52.10732,43.44961 -4.16256,5.99147 -15.13131,21.80075 -24.375,35.13174 -9.24369,13.33099 -19.227744,27.67474 -22.186794,31.875 -7.35109,10.43461 -8.87287,13.51349 -11.74995,23.7724 -5.32337,18.98183 -6.15265,22.98437 -7.32445,35.35162 l -1.21165,12.78776 6.99558,12.52427 6.99556,12.52428 -2.14689,13.08255 -2.1469,13.08255 6.0231,9.66367 6.0231,9.66367 -3.3587,9.33858 -3.35871,9.33859 6.32965,12.62845 c 8.0604,16.0815 22.151774,37.22358 33.619354,50.44095 4.92099,5.67188 9.3396,10.31585 9.81912,10.31995 0.47954,0.004 9.46875,-3.16465 19.97605,-7.04166 10.5073,-3.877 19.33868,-6.8146 19.62528,-6.528 0.28661,0.28661 1.26945,5.00222 2.18409,10.47916 l 1.66297,9.95805 10.8178,0.18654 10.81781,0.18652 16.86883,10.15022 c 17.50149,10.5309 18.46597,11.43576 45.912,43.07423 0.52364,0.60364 7.89235,1.54764 16.37491,2.09778 15.05804,0.97661 15.62933,1.12216 24.15249,6.15346 l 8.72965,5.15319 10,-0.77979 c 34.5834,-2.69674 61.76641,-10.03184 92.5,-24.9603 65.53126,-31.83101 113.09619,-91.71094 129.97794,-163.63041 4.34868,-18.52625 5.64706,-30.04987 5.64706,-50.11994 l 0,-17.9326 4.21004,-2.60195 c 6.83122,-4.22192 13.81007,-2.92292 19.29095,3.59069 3.65673,4.34577 -0.38574,54.40432 -6.11174,75.68236 -0.74004,2.75 -1.93448,7.25 -2.65433,10 -1.8633,7.11835 -4.76328,15.88172 -6.09575,18.42054 -0.62655,1.1938 -1.13917,2.73681 -1.13917,3.42892 0,4.02553 -17.11064,38.25074 -25.63483,51.27554 -43.05063,65.78062 -112.94063,109.73825 -189.78436,119.36572 -17.9041,2.24315 -37.81621,2.84169 -55.20581,1.65947 z m -63.12295,-306.0314 c 0.90871,-2.75341 1.42061,-5.23499 1.13757,-5.51462 -0.28305,-0.27962 -2.0433,-0.21473 -3.91168,0.1442 -4.32035,0.82998 -5.68383,4.74853 -2.77188,7.9662 3.054,3.37464 3.67086,3.08592 5.54599,-2.59578 z m 218.45219,151.2152 c -14.88314,-2.50608 -28.48454,-10.19947 -36.96742,-20.90998 -17.98838,-22.71219 -16.02418,-57.24817 4.41519,-77.63107 23.49101,-23.42609 63.59361,-22.87367 85.86569,1.18285 8.02267,8.66543 11.20315,14.28589 13.86325,24.49871 8.85456,33.99494 -13.26611,67.91285 -47.50595,72.84146 -9.85048,1.41793 -11.3489,1.4193 -19.67076,0.018 z m 23.44741,-23.54735 c 7.17265,-3.25831 16.40511,-13.99522 18.71099,-21.75997 4.17422,-14.05613 1.24682,-27.29796 -8.35817,-37.80733 -7.2145,-7.89383 -13.65513,-10.75059 -24.23741,-10.75059 -18.55684,0 -31.8781,13.85237 -32.82552,34.13426 -0.76818,16.4448 5.6168,28.73537 18.38206,35.384 7.43479,3.87231 20.73742,4.24782 28.32805,0.79963 z m 180.30259,23.54735 c -14.88314,-2.50608 -28.48454,-10.19947 -36.96742,-20.90998 -17.98838,-22.71219 -16.02418,-57.24817 4.41519,-77.63107 23.49101,-23.42609 63.59361,-22.87367 85.86569,1.18285 8.02267,8.66543 11.20315,14.28589 13.86325,24.49871 8.85456,33.99494 -13.26611,67.91285 -47.50595,72.84146 -9.85048,1.41793 -11.3489,1.4193 -19.67076,0.018 z m 23.44741,-23.54735 c 7.17265,-3.25831 16.40511,-13.99522 18.71099,-21.75997 4.17422,-14.05613 1.24682,-27.29796 -8.35817,-37.80733 -7.2145,-7.89383 -13.65513,-10.75059 -24.23741,-10.75059 -18.55684,0 -31.8781,13.85237 -32.82552,34.13426 -0.76818,16.4448 5.6168,28.73537 18.38206,35.384 7.43479,3.87231 20.73742,4.24782 28.32805,0.79963 z m -425.35189,-32.97414 0.32524,-56.5625 16.83564,0 16.83563,0 14.41437,30.88484 c 7.9279,16.98666 14.69561,30.8873 15.03936,30.8903 0.34375,0.002 7.13771,-13.89516 15.0977,-30.88484 l 14.47269,-30.8903 16.77731,0 16.7773,0 0.32524,56.5625 0.32523,56.5625 -12.49356,0 -12.49357,0 -0.33167,-35.9375 -0.33167,-35.9375 -15.2282,30.9375 -15.2282,30.9375 -7.65858,0 -7.65858,0 -15.23822,-30.9375 -15.23822,-30.9375 -0.33168,35.9375 -0.33166,35.9375 -12.49357,0 -12.49357,0 z m 306.2354,-96.79361 c -9.09934,-3.72301 -11.54459,-15.7081 -4.66902,-22.88464 8.88551,-9.27448 24.38386,-2.66413 24.38386,10.40021 0,9.20095 -10.88815,16.09588 -19.71484,12.48443 z m -280.28452,-55.5482 c -14.70497,-5.86366 -16.72184,-25.51024 -3.44957,-33.60244 7.98738,-4.86996 20.42539,-1.69921 25.22818,6.43127 8.3916,14.20583 -6.79086,33.14759 -21.77861,27.17117 z"
       id="path3401"
       inkscape:connector-curvature="0"
       sodipodi:nodetypes="ssssscsssssssssssssssssssscscssscsscssssssssssscsssssssssssssssssssssssssssssssscssscsssssssssssscccccccccsscssscccsssscsssscsssssssssscssscsssssccssssssscsssssccsssssssccccscsccccccccccccccccccccssssssss" />
  </g>
</svg>
